<?xml version="1.0" encoding="utf-8"?>
<!-- Generator: Adobe Illustrator 27.2.0, SVG Export Plug-In . SVG Version: 6.00 Build 0)  -->
<svg version="1.1" id="Layer_1" xmlns="http://www.w3.org/2000/svg" xmlns:xlink="http://www.w3.org/1999/xlink" x="0px" y="0px"
	 viewBox="0 0 1385.1 304.2" style="enable-background:new 0 0 1385.1 304.2;" xml:space="preserve">
<style type="text/css">
	.st0{fill:url(#SVGID_1_);}
	.st1{fill:none;stroke:url(#SVGID_00000084512318349774056330000016474631856962493060_);stroke-width:15;}
	.st2{fill:#272727;}
	.st3{fill:#FFFFFF;}
</style>
<g>
	
		<linearGradient id="SVGID_1_" gradientUnits="userSpaceOnUse" x1="-280.6006" y1="376.1492" x2="313.9864" y2="87.6466" gradientTransform="matrix(1 0 0 -1 287 384)">
		<stop  offset="0" style="stop-color:#DAA113"/>
		<stop  offset="1" style="stop-color:#FFEE53"/>
	</linearGradient>
	<rect x="6.4" y="7.9" class="st0" width="594.6" height="288.5"/>
	
		<linearGradient id="SVGID_00000081619003746812418890000013991728428324527029_" gradientUnits="userSpaceOnUse" x1="394.7608" y1="229.8404" x2="389.7464" y2="229.7822" gradientTransform="matrix(1 0 0 -1 287 384)">
		<stop  offset="0" style="stop-color:#DAA113"/>
		<stop  offset="1" style="stop-color:#FFEE53"/>
	</linearGradient>
	
		<line style="fill:none;stroke:url(#SVGID_00000081619003746812418890000013991728428324527029_);stroke-width:15;" x1="686.9" y1="7.9" x2="686.9" y2="300.3"/>
	<path class="st2" d="M764.4,43.9c0-6.5,1.5-12.4,4.5-17.5c3.1-5.2,7.2-9.2,12.4-12.1c5.2-2.9,11-4.4,17.2-4.4
		c7.1,0,13.4,1.8,18.9,5.3c5.6,3.5,9.6,8.4,12.1,14.8h-13.1c-1.7-3.5-4.1-6.1-7.2-7.9c-3.1-1.7-6.6-2.6-10.6-2.6
		c-4.4,0-8.3,1-11.8,3c-3.5,2-6.2,4.8-8.2,8.5c-1.9,3.7-2.9,8-2.9,12.9s1,9.2,2.9,12.9c2,3.7,4.7,6.6,8.2,8.6c3.5,2,7.4,3,11.8,3
		c4,0,7.6-0.9,10.6-2.6c3.1-1.7,5.5-4.3,7.2-7.9h13.1c-2.5,6.4-6.5,11.3-12.1,14.8c-5.5,3.5-11.8,5.2-18.9,5.2
		c-6.3,0-12-1.4-17.2-4.3c-5.2-2.9-9.3-7-12.4-12.2C765.9,56.3,764.4,50.4,764.4,43.9z M909.8,49.7c0,2-0.1,3.8-0.4,5.4H869
		c0.3,4.2,1.9,7.6,4.7,10.2c2.8,2.6,6.3,3.8,10.4,3.8c5.9,0,10-2.5,12.5-7.4h11.8c-1.6,4.9-4.5,8.9-8.7,12
		c-4.2,3.1-9.3,4.6-15.5,4.6c-5.1,0-9.6-1.1-13.6-3.4c-4-2.3-7.1-5.5-9.4-9.6c-2.2-4.2-3.4-9-3.4-14.4c0-5.4,1.1-10.2,3.3-14.3
		c2.2-4.2,5.3-7.4,9.3-9.6c4-2.2,8.6-3.4,13.8-3.4c5,0,9.4,1.1,13.3,3.3c3.9,2.2,6.9,5.2,9.1,9.2C908.7,40,909.8,44.5,909.8,49.7z
		 M898.4,46.2c-0.1-4-1.5-7.3-4.3-9.7c-2.8-2.4-6.3-3.6-10.5-3.6c-3.8,0-7,1.2-9.7,3.6c-2.7,2.4-4.3,5.6-4.8,9.7H898.4z M966.4,23.7
		c4.2,0,7.9,0.9,11.1,2.6c3.3,1.7,5.9,4.3,7.8,7.7c1.9,3.4,2.8,7.5,2.8,12.3v31.2h-10.8V47.8c0-4.7-1.2-8.3-3.5-10.8
		c-2.4-2.6-5.6-3.8-9.7-3.8c-4.1,0-7.4,1.3-9.8,3.8c-2.4,2.5-3.5,6.1-3.5,10.8v29.5h-10.9V24.5h10.9v6c1.8-2.2,4.1-3.9,6.8-5.1
		C960.3,24.3,963.3,23.7,966.4,23.7z M1033.9,33.5v29.2c0,2,0.4,3.4,1.3,4.3c1,0.8,2.6,1.2,4.8,1.2h6.7v9.1h-8.6
		c-4.9,0-8.7-1.2-11.3-3.5c-2.6-2.3-3.9-6-3.9-11.2V33.5h-6.2v-8.9h6.2V11.4h11v13.1h12.9v8.9H1033.9z M1087,32.2
		c1.6-2.7,3.7-4.8,6.3-6.2c2.7-1.5,5.8-2.3,9.5-2.3V35h-2.8c-4.3,0-7.5,1.1-9.8,3.3c-2.2,2.2-3.3,5.9-3.3,11.3v27.8h-10.9V24.5h10.9
		V32.2z M1180.5,49.7c0,2-0.1,3.8-0.4,5.4h-40.4c0.3,4.2,1.9,7.6,4.7,10.2c2.8,2.6,6.3,3.8,10.4,3.8c5.9,0,10-2.5,12.5-7.4h11.8
		c-1.6,4.9-4.5,8.9-8.7,12c-4.2,3.1-9.3,4.6-15.5,4.6c-5.1,0-9.6-1.1-13.6-3.4c-4-2.3-7.1-5.5-9.4-9.6c-2.2-4.2-3.4-9-3.4-14.4
		c0-5.4,1.1-10.2,3.3-14.3c2.2-4.2,5.3-7.4,9.3-9.6c4-2.2,8.6-3.4,13.8-3.4c5,0,9.4,1.1,13.3,3.3c3.9,2.2,6.9,5.2,9.1,9.2
		C1179.4,40,1180.5,44.5,1180.5,49.7z M1169.1,46.2c-0.1-4-1.5-7.3-4.3-9.7c-2.8-2.4-6.3-3.6-10.5-3.6c-3.8,0-7,1.2-9.7,3.6
		c-2.7,2.4-4.3,5.6-4.8,9.7H1169.1z"/>
	<path class="st2" d="M778.9,120.2v66.7H768v-66.7H778.9z M839.1,133.2c4.2,0,7.9,0.9,11.1,2.6c3.3,1.7,5.9,4.3,7.8,7.7
		c1.9,3.4,2.8,7.5,2.8,12.3v31.2H850v-29.5c0-4.7-1.2-8.3-3.5-10.8c-2.4-2.6-5.6-3.8-9.7-3.8c-4.1,0-7.4,1.3-9.8,3.8
		c-2.4,2.5-3.5,6.1-3.5,10.8v29.5h-10.9V134h10.9v6c1.8-2.2,4.1-3.9,6.8-5.1C833,133.8,836,133.2,839.1,133.2z M899.5,127
		c-2,0-3.6-0.7-5-2c-1.3-1.3-2-3-2-5c0-2,0.7-3.6,2-5c1.3-1.3,3-2,5-2c1.9,0,3.5,0.7,4.9,2c1.3,1.3,2,3,2,5c0,2-0.7,3.6-2,5
		C903.1,126.4,901.4,127,899.5,127z M904.9,134v52.8h-10.9V134H904.9z M951.2,142.9v29.2c0,2,0.4,3.4,1.3,4.3c1,0.8,2.6,1.2,4.8,1.2
		h6.7v9.1h-8.6c-4.9,0-8.7-1.2-11.3-3.5c-2.6-2.3-3.9-6-3.9-11.2v-29.2h-6.2V134h6.2v-13.1h11V134H964v8.9H951.2z M998.8,127
		c-2,0-3.6-0.7-5-2c-1.3-1.3-2-3-2-5c0-2,0.7-3.6,2-5c1.3-1.3,3-2,5-2c1.9,0,3.5,0.7,4.9,2c1.3,1.3,2,3,2,5c0,2-0.7,3.6-2,5
		C1002.4,126.4,1000.8,127,998.8,127z M1004.2,134v52.8h-10.9V134H1004.2z M1034.1,160.2c0-5.3,1.1-10,3.3-14.1
		c2.2-4.1,5.2-7.3,9-9.5c3.8-2.3,8.1-3.5,12.7-3.5c4.2,0,7.8,0.8,10.8,2.5c3.1,1.6,5.6,3.6,7.5,6V134h11v52.8h-11V179
		c-1.9,2.5-4.4,4.6-7.6,6.2c-3.2,1.7-6.8,2.5-10.9,2.5c-4.5,0-8.7-1.2-12.5-3.5c-3.8-2.4-6.8-5.6-9-9.8
		C1035.2,170.3,1034.1,165.5,1034.1,160.2z M1077.3,160.4c0-3.6-0.8-6.8-2.3-9.5c-1.5-2.7-3.4-4.7-5.8-6.1c-2.4-1.4-5.1-2.1-7.9-2.1
		s-5.4,0.7-7.9,2.1c-2.4,1.3-4.4,3.4-5.9,6c-1.5,2.6-2.2,5.8-2.2,9.4s0.7,6.8,2.2,9.6c1.5,2.7,3.5,4.9,5.9,6.3
		c2.5,1.4,5.1,2.1,7.9,2.1c2.8,0,5.4-0.7,7.9-2.1c2.4-1.4,4.4-3.5,5.8-6.1C1076.6,167.2,1077.3,164,1077.3,160.4z M1134.7,142.9
		v29.2c0,2,0.4,3.4,1.3,4.3c1,0.8,2.6,1.2,4.8,1.2h6.7v9.1h-8.6c-4.9,0-8.7-1.2-11.3-3.5c-2.6-2.3-3.9-6-3.9-11.2v-29.2h-6.2V134
		h6.2v-13.1h11V134h12.9v8.9H1134.7z M1182.3,127c-2,0-3.6-0.7-5-2c-1.3-1.3-2-3-2-5c0-2,0.7-3.6,2-5c1.3-1.3,3-2,5-2
		c1.9,0,3.5,0.7,4.9,2c1.3,1.3,2,3,2,5c0,2-0.7,3.6-2,5C1185.9,126.4,1184.3,127,1182.3,127z M1187.7,134v52.8h-10.9V134H1187.7z
		 M1241.7,177.1l15-43.1h11.6l-20.1,52.8h-13l-20-52.8h11.7L1241.7,177.1z M1344.1,159.2c0,2-0.1,3.8-0.4,5.4h-40.4
		c0.3,4.2,1.9,7.6,4.7,10.2c2.8,2.6,6.3,3.8,10.4,3.8c5.9,0,10-2.5,12.5-7.4h11.8c-1.6,4.9-4.5,8.9-8.7,12
		c-4.2,3.1-9.3,4.6-15.5,4.6c-5.1,0-9.6-1.1-13.6-3.4c-4-2.3-7.1-5.5-9.4-9.6c-2.2-4.2-3.4-9-3.4-14.4c0-5.4,1.1-10.2,3.3-14.3
		c2.2-4.2,5.3-7.4,9.3-9.6c4-2.2,8.6-3.4,13.8-3.4c5,0,9.4,1.1,13.3,3.3c3.9,2.2,6.9,5.2,9.1,9.2
		C1343,149.5,1344.1,154,1344.1,159.2z M1332.7,155.7c-0.1-4-1.5-7.3-4.3-9.7c-2.8-2.4-6.3-3.6-10.5-3.6c-3.8,0-7,1.2-9.7,3.6
		c-2.7,2.4-4.3,5.6-4.8,9.7H1332.7z"/>
	<path class="st2" d="M822.8,296.4h-10.9l-32.9-49.8v49.8H768v-66.7h10.9l32.9,49.7v-49.7h10.9V296.4z M852.7,269.7
		c0-5.3,1.1-10,3.3-14.1c2.2-4.1,5.2-7.3,9-9.5c3.8-2.3,8.1-3.5,12.7-3.5c4.2,0,7.8,0.8,10.8,2.5c3.1,1.6,5.6,3.6,7.5,6v-7.7h11
		v52.8h-11v-7.9c-1.9,2.5-4.4,4.6-7.6,6.2c-3.2,1.7-6.8,2.5-10.9,2.5c-4.5,0-8.7-1.2-12.5-3.5c-3.8-2.4-6.8-5.6-9-9.8
		C853.7,279.8,852.7,275,852.7,269.7z M895.9,269.9c0-3.6-0.8-6.8-2.3-9.5c-1.5-2.7-3.4-4.7-5.9-6.1c-2.4-1.4-5.1-2.1-7.9-2.1
		s-5.4,0.7-7.9,2.1c-2.4,1.3-4.4,3.4-5.9,6c-1.5,2.6-2.2,5.8-2.2,9.4s0.7,6.8,2.2,9.6c1.5,2.7,3.5,4.9,5.9,6.3
		c2.5,1.4,5.1,2.1,7.9,2.1c2.8,0,5.4-0.7,7.9-2.1c2.4-1.4,4.4-3.5,5.9-6.1C895.1,276.7,895.9,273.5,895.9,269.9z M953.2,252.4v29.2
		c0,2,0.4,3.4,1.3,4.3c1,0.8,2.6,1.2,4.8,1.2h6.7v9.1h-8.6c-4.9,0-8.7-1.2-11.3-3.5c-2.6-2.3-3.9-6-3.9-11.2v-29.2H936v-8.9h6.2
		v-13.1h11v13.1h12.9v8.9H953.2z M1000.9,236.5c-2,0-3.6-0.7-5-2c-1.3-1.3-2-3-2-5c0-2,0.7-3.6,2-5c1.3-1.3,3-2,5-2
		c1.9,0,3.5,0.7,4.9,2c1.3,1.3,2,3,2,5c0,2-0.7,3.6-2,5C1004.5,235.8,1002.8,236.5,1000.9,236.5z M1006.3,243.5v52.8h-10.9v-52.8
		H1006.3z M1062.7,297.2c-5,0-9.5-1.1-13.5-3.4c-4-2.3-7.2-5.5-9.5-9.6c-2.3-4.2-3.5-9-3.5-14.4c0-5.4,1.2-10.1,3.5-14.3
		c2.4-4.2,5.6-7.4,9.7-9.6c4.1-2.2,8.7-3.4,13.7-3.4s9.6,1.1,13.7,3.4c4.1,2.2,7.3,5.4,9.7,9.6c2.4,4.2,3.5,8.9,3.5,14.3
		s-1.2,10.1-3.6,14.3c-2.4,4.2-5.8,7.4-10,9.7C1072.4,296.1,1067.8,297.2,1062.7,297.2z M1062.7,287.7c2.8,0,5.4-0.7,7.9-2
		c2.5-1.3,4.5-3.4,6-6s2.3-5.9,2.3-9.8c0-3.8-0.7-7.1-2.2-9.7c-1.5-2.7-3.4-4.7-5.9-6c-2.4-1.3-5.1-2-7.9-2s-5.4,0.7-7.9,2
		c-2.4,1.3-4.3,3.4-5.7,6c-1.4,2.6-2.1,5.8-2.1,9.7c0,5.7,1.4,10.1,4.3,13.2C1054.6,286.2,1058.3,287.7,1062.7,287.7z M1146.8,242.6
		c4.2,0,7.9,0.9,11.1,2.6c3.3,1.7,5.9,4.3,7.8,7.7c1.9,3.4,2.8,7.5,2.8,12.3v31.2h-10.8v-29.5c0-4.7-1.2-8.3-3.5-10.8
		c-2.4-2.6-5.6-3.8-9.7-3.8s-7.4,1.3-9.8,3.8c-2.4,2.5-3.5,6.1-3.5,10.8v29.5h-10.9v-52.8h10.9v6c1.8-2.2,4.1-3.9,6.8-5.1
		C1140.7,243.3,1143.7,242.6,1146.8,242.6z M1198,269.7c0-5.3,1.1-10,3.3-14.1c2.2-4.1,5.2-7.3,9-9.5c3.8-2.3,8.1-3.5,12.7-3.5
		c4.2,0,7.8,0.8,10.8,2.5c3.1,1.6,5.6,3.6,7.5,6v-7.7h11v52.8h-11v-7.9c-1.9,2.5-4.4,4.6-7.6,6.2c-3.2,1.7-6.8,2.5-10.9,2.5
		c-4.5,0-8.7-1.2-12.5-3.5c-3.8-2.4-6.8-5.6-9-9.8C1199,279.8,1198,275,1198,269.7z M1241.2,269.9c0-3.6-0.8-6.8-2.3-9.5
		c-1.5-2.7-3.4-4.7-5.8-6.1c-2.4-1.4-5.1-2.1-7.9-2.1s-5.4,0.7-7.9,2.1c-2.4,1.3-4.4,3.4-5.9,6c-1.5,2.6-2.2,5.8-2.2,9.4
		s0.7,6.8,2.2,9.6c1.5,2.7,3.5,4.9,5.9,6.3c2.5,1.4,5.1,2.1,7.9,2.1c2.8,0,5.4-0.7,7.9-2.1c2.4-1.4,4.4-3.5,5.8-6.1
		C1240.4,276.7,1241.2,273.5,1241.2,269.9z M1296.7,225.4v71h-10.9v-71H1296.7z M1378.7,268.6c0,2-0.1,3.8-0.4,5.4h-40.4
		c0.3,4.2,1.9,7.6,4.7,10.2c2.8,2.6,6.3,3.8,10.4,3.8c5.9,0,10-2.5,12.5-7.4h11.8c-1.6,4.9-4.5,8.9-8.7,12
		c-4.2,3.1-9.3,4.6-15.5,4.6c-5.1,0-9.6-1.1-13.6-3.4c-4-2.3-7.1-5.5-9.4-9.6c-2.2-4.2-3.4-9-3.4-14.4c0-5.4,1.1-10.2,3.3-14.3
		c2.2-4.2,5.3-7.4,9.3-9.6c4-2.2,8.6-3.4,13.8-3.4c5,0,9.4,1.1,13.3,3.3c3.9,2.2,6.9,5.2,9.1,9.2
		C1377.6,259,1378.7,263.5,1378.7,268.6z M1367.3,265.2c-0.1-4-1.5-7.3-4.3-9.7c-2.8-2.4-6.3-3.6-10.5-3.6c-3.8,0-7,1.2-9.7,3.6
		c-2.7,2.4-4.3,5.6-4.8,9.7H1367.3z"/>
	<path class="st3" d="M98.7,151.7c0-16.5,3.7-31.2,11-44.1c7.5-13.1,17.7-23.3,30.4-30.4c12.9-7.4,27.4-11,43.4-11
		c18.7,0,35.1,4.8,49.1,14.4c14.1,9.6,23.9,22.9,29.5,39.8h-38.6c-3.8-8-9.3-14-16.3-18c-6.9-4-14.9-6-24-6c-9.7,0-18.5,2.3-26.1,7
		c-7.5,4.5-13.4,10.9-17.7,19.2c-4.2,8.3-6.2,18.1-6.2,29.2c0,11,2.1,20.8,6.2,29.2c4.3,8.3,10.2,14.8,17.7,19.4
		c7.7,4.5,16.4,6.7,26.1,6.7c9.1,0,17.1-2,24-6c7-4.2,12.5-10.2,16.3-18.2h38.6c-5.6,17.1-15.4,30.4-29.5,40
		c-13.9,9.4-30.3,14.1-49.1,14.1c-16,0-30.4-3.6-43.4-10.8c-12.8-7.4-22.9-17.5-30.4-30.4C102.4,182.9,98.7,168.2,98.7,151.7z"/>
	<path class="st3" d="M324.4,66.1v169.5h-33.6V66.1H324.4z"/>
	<path class="st3" d="M500.7,235.6h-33.6l-76-114.8v116.3h-33.6V68h33.6l76,115.1V68h33.6V235.6z"/>
</g>
</svg>
