<?xml version="1.0" encoding="utf-8"?>
<!-- Generator: Adobe Illustrator 27.2.0, SVG Export Plug-In . SVG Version: 6.00 Build 0)  -->
<svg version="1.1" id="Layer_1" xmlns="http://www.w3.org/2000/svg" xmlns:xlink="http://www.w3.org/1999/xlink" x="0px" y="0px"
	 viewBox="0 0 1385.1 304.2" style="enable-background:new 0 0 1385.1 304.2;" xml:space="preserve">
<style type="text/css">
	.st0{fill:url(#SVGID_1_);}
	.st1{fill:none;stroke:url(#SVGID_00000050648891530086509270000005631375454012228019_);stroke-width:15;}
	.st2{fill:#FFFFFF;}
</style>
<g>
	
		<linearGradient id="SVGID_1_" gradientUnits="userSpaceOnUse" x1="-282.7427" y1="390.3617" x2="313.8134" y2="679.8195" gradientTransform="matrix(1 0 0 1 287 -384)">
		<stop  offset="0" style="stop-color:#DAA113"/>
		<stop  offset="1" style="stop-color:#FFEE53"/>
	</linearGradient>
	<rect x="4.3" y="6.4" class="st0" width="596.5" height="289.5"/>
	
		<linearGradient id="SVGID_00000044162811831889745480000013571002582711896224_" gradientUnits="userSpaceOnUse" x1="394.7405" y1="537.1591" x2="389.7231" y2="537.2173" gradientTransform="matrix(1 0 0 1 287 -384)">
		<stop  offset="0" style="stop-color:#DAA113"/>
		<stop  offset="1" style="stop-color:#FFEE53"/>
	</linearGradient>
	
		<line style="fill:none;stroke:url(#SVGID_00000044162811831889745480000013571002582711896224_);stroke-width:15;" x1="686.8" y1="6.4" x2="686.8" y2="299.9"/>
	<path class="st2" d="M764.6,42.5c0-6.5,1.5-12.4,4.5-17.6c3.1-5.1,7.2-9.3,12.4-12.2c5.3-2.9,11.1-4.4,17.2-4.4
		c7.2,0,13.4,1.8,19,5.3c5.5,3.5,9.7,8.4,12.2,14.8h-13.2c-1.8-3.5-4.1-6.2-7.2-7.9s-6.7-2.6-10.7-2.6c-4.4,0-8.4,1-11.8,3
		c-3.5,2-6.2,4.9-8.2,8.5c-1.9,3.8-2.9,8-2.9,12.9s1,9.3,2.9,12.9c2,3.8,4.8,6.7,8.2,8.7c3.5,2,7.4,3,11.8,3c4,0,7.7-0.9,10.7-2.6
		c3.1-1.8,5.5-4.4,7.2-7.9h13.2c-2.5,6.4-6.5,11.3-12.2,14.8c-5.5,3.5-11.8,5.1-19,5.1c-6.3,0-12.1-1.4-17.2-4.3
		c-5.1-2.9-9.3-7-12.4-12.2C766.1,55,764.6,49.1,764.6,42.5z M910.5,48.3c0,2-0.1,3.8-0.4,5.4h-40.6c0.4,4.3,1.9,7.7,4.8,10.2
		c2.8,2.5,6.3,3.9,10.4,3.9c5.9,0,10-2.5,12.6-7.4h11.8c-1.6,4.9-4.5,8.9-8.8,12.1c-4.1,3.1-9.4,4.6-15.6,4.6c-5,0-9.7-1.1-13.7-3.4
		s-7.2-5.5-9.4-9.7s-3.4-8.9-3.4-14.4c0-5.4,1.1-10.2,3.3-14.3c2.3-4.1,5.4-7.4,9.3-9.7c4-2.3,8.7-3.4,13.8-3.4
		c5,0,9.4,1.1,13.3,3.3c3.9,2.1,6.9,5.3,9.2,9.3C909.4,38.6,910.5,43.1,910.5,48.3z M899.1,44.9c-0.1-4-1.5-7.3-4.3-9.7
		c-2.8-2.4-6.3-3.6-10.4-3.6c-3.8,0-7,1.3-9.7,3.6c-2.6,2.4-4.3,5.7-4.8,9.7H899.1z M967.3,22.3c4.1,0,7.9,0.9,11.2,2.6
		c3.4,1.8,5.9,4.3,7.8,7.7c1.9,3.4,2.8,7.5,2.8,12.3v31.3h-10.8V46.5c0-4.8-1.1-8.4-3.5-10.9c-2.4-2.5-5.7-3.9-9.7-3.9
		c-4.1,0-7.4,1.3-9.8,3.9c-2.4,2.5-3.5,6.2-3.5,10.9v29.6h-11.2v-53h10.9v6c1.8-2.1,4-3.9,6.8-5.1C961.1,22.9,964.1,22.3,967.3,22.3
		z M1035.1,32.1v29.4c0,2,0.5,3.4,1.4,4.3c1,0.9,2.5,1.3,4.8,1.3h6.8v9.2h-8.7c-4.9,0-8.7-1.1-11.3-3.5c-2.6-2.3-3.9-6-3.9-11.3
		V32.1h-6.3v-8.9h6.3V10h11.1v13.2h12.9v8.9H1035.1z M1088.2,30.8c1.6-2.6,3.8-4.8,6.4-6.3c2.6-1.5,5.9-2.3,9.5-2.3v11.3h-2.8
		c-4.3,0-7.5,1.1-9.8,3.3c-2.1,2.1-3.3,5.9-3.3,11.3v27.9h-10.9V23.2h10.9v7.7H1088.2z M1182,48.3c0,2-0.1,3.8-0.4,5.4h-40.6
		c0.4,4.3,1.9,7.7,4.8,10.2c2.8,2.5,6.3,3.9,10.4,3.9c5.9,0,10-2.5,12.6-7.4h11.8c-1.6,4.9-4.5,8.9-8.8,12.1
		c-4.1,3.1-9.4,4.6-15.6,4.6c-5,0-9.7-1.1-13.7-3.4c-4-2.3-7.2-5.5-9.4-9.7c-2.3-4.1-3.4-8.9-3.4-14.4c0-5.4,1.1-10.2,3.3-14.3
		c2.3-4.1,5.4-7.4,9.3-9.7c4-2.3,8.7-3.4,13.8-3.4c5,0,9.4,1.1,13.3,3.3c3.9,2.1,6.9,5.3,9.2,9.3C1180.9,38.6,1182,43.1,1182,48.3z
		 M1170.6,44.9c-0.1-4-1.5-7.3-4.3-9.7s-6.3-3.6-10.4-3.6c-3.8,0-7,1.3-9.7,3.6c-2.6,2.4-4.3,5.7-4.8,9.7H1170.6z"/>
	<path class="st2" d="M779.3,119.1v66.8h-10.9v-66.8H779.3z M839.7,132.1c4.1,0,7.9,0.9,11.2,2.6c3.4,1.8,5.9,4.3,7.8,7.7
		c1.9,3.4,2.8,7.5,2.8,12.3v31.3h-10.9v-29.6c0-4.8-1.1-8.4-3.5-10.9c-2.4-2.5-5.7-3.9-9.7-3.9s-7.4,1.3-9.8,3.9
		c-2.4,2.5-3.5,6.2-3.5,10.9v29.6h-10.9v-53H824v6c1.8-2.1,4-3.9,6.8-5.1C833.5,132.7,836.5,132.1,839.7,132.1z M900.2,125.9
		c-2,0-3.6-0.6-5-2c-1.4-1.4-2-3-2-5c0-2,0.6-3.6,2-5c1.4-1.4,3-2,5-2c1.9,0,3.5,0.6,4.9,2c1.4,1.4,2,3,2,5c0,2-0.6,3.6-2,5
		C903.7,125.3,902.1,125.9,900.2,125.9z M905.6,132.9v53h-10.9v-53H905.6z M952,141.9v29.4c0,2,0.5,3.4,1.4,4.3
		c1,0.9,2.5,1.3,4.8,1.3h6.8v9.2h-8.7c-4.9,0-8.7-1.1-11.3-3.5c-2.6-2.3-3.9-6-3.9-11.3v-29.4h-6.3v-8.9h6.3v-13.1h11.1v13.2H965
		v8.9H952z M999.8,125.9c-2,0-3.6-0.6-5-2c-1.4-1.4-2-3-2-5c0-2,0.6-3.6,2-5c1.4-1.4,3-2,5-2c1.9,0,3.5,0.6,4.9,2c1.4,1.4,2,3,2,5
		c0,2-0.6,3.6-2,5C1003.3,125.3,1001.7,125.9,999.8,125.9z M1005.2,132.9v53h-10.9v-53H1005.2z M1035.2,159.2c0-5.3,1.1-10,3.3-14.2
		c2.3-4.1,5.3-7.3,9-9.5c3.9-2.3,8-3.5,12.7-3.5c4.1,0,7.8,0.9,10.9,2.5c3.1,1.6,5.7,3.6,7.5,6v-7.7h11.1v53h-11.1v-7.9
		c-1.9,2.5-4.4,4.6-7.7,6.3c-3.3,1.6-6.9,2.5-10.9,2.5c-4.5,0-8.7-1.1-12.6-3.5c-3.8-2.4-6.8-5.7-9-9.8
		C1036.2,169.4,1035.2,164.6,1035.2,159.2z M1078.5,159.4c0-3.6-0.8-6.8-2.3-9.5c-1.5-2.6-3.4-4.8-5.9-6.2c-2.4-1.4-5-2.1-7.9-2.1
		c-2.8,0-5.4,0.8-7.9,2.1c-2.4,1.4-4.4,3.4-5.9,6c-1.5,2.6-2.3,5.8-2.3,9.4c0,3.6,0.8,6.9,2.3,9.7s3.5,4.9,5.9,6.4
		c2.5,1.4,5.1,2.1,7.9,2.1s5.4-0.8,7.9-2.1c2.5-1.4,4.4-3.5,5.9-6.2C1077.8,166.3,1078.5,163.1,1078.5,159.4z M1136.1,141.9v29.4
		c0,2,0.5,3.4,1.4,4.3c1,0.9,2.5,1.3,4.8,1.3h6.8v9.2h-8.7c-4.9,0-8.7-1.1-11.3-3.5c-2.6-2.3-3.9-6-3.9-11.3v-29.4h-6.3v-8.9h6.3
		v-13.1h11.1v13.2h12.9v8.9H1136.1z M1183.9,125.9c-2,0-3.6-0.6-5-2s-2-3-2-5c0-2,0.6-3.6,2-5s3-2,5-2c1.9,0,3.5,0.6,4.9,2s2,3,2,5
		c0,2-0.6,3.6-2,5C1187.4,125.3,1185.8,125.9,1183.9,125.9z M1189.3,132.9v53h-10.9v-53H1189.3z M1243.4,176.1l15.1-43.2h11.7
		l-20.2,53h-13.1l-20.1-53h11.7L1243.4,176.1z M1346.2,158.2c0,2-0.1,3.8-0.4,5.4h-40.6c0.4,4.3,1.9,7.7,4.8,10.2
		c2.8,2.5,6.3,3.9,10.4,3.9c5.9,0,10-2.5,12.6-7.4h11.8c-1.6,4.9-4.5,8.9-8.8,12.1c-4.1,3.1-9.4,4.6-15.6,4.6c-5,0-9.7-1.1-13.7-3.4
		c-4-2.3-7.2-5.5-9.4-9.7c-2.3-4.1-3.4-8.9-3.4-14.4c0-5.4,1.1-10.2,3.3-14.3c2.3-4.1,5.4-7.4,9.3-9.7c4-2.3,8.7-3.4,13.8-3.4
		c5,0,9.4,1.1,13.3,3.3c3.9,2.1,6.9,5.3,9.2,9.3C1345,148.5,1346.2,153,1346.2,158.2z M1334.7,154.7c-0.1-4-1.5-7.3-4.3-9.7
		c-2.8-2.4-6.3-3.6-10.4-3.6c-3.8,0-7,1.3-9.7,3.6s-4.3,5.7-4.8,9.7H1334.7z"/>
	<path class="st2" d="M823.2,295.8h-10.9l-33-50v50h-10.9v-66.9h10.9l33,49.9v-49.9h10.9V295.8z M853.2,269.1c0-5.3,1.1-10,3.3-14.2
		c2.3-4.1,5.3-7.3,9-9.5c3.9-2.3,8-3.5,12.7-3.5c4.1,0,7.8,0.9,10.9,2.5c3.1,1.6,5.7,3.6,7.5,6v-7.7h11.1v53.1h-11.2v-7.9
		c-1.9,2.5-4.4,4.6-7.7,6.3c-3.3,1.6-6.9,2.5-10.9,2.5c-4.5,0-8.7-1.1-12.6-3.5c-3.8-2.4-6.8-5.7-9-9.8
		C854.2,279.1,853.2,274.4,853.2,269.1z M896.6,269.2c0-3.6-0.8-6.8-2.3-9.5c-1.5-2.6-3.4-4.8-5.9-6.2c-2.4-1.4-5-2.1-7.9-2.1
		c-2.8,0-5.4,0.8-7.9,2.1c-2.4,1.4-4.4,3.4-5.9,6s-2.3,5.8-2.3,9.4c0,3.6,0.8,6.9,2.3,9.7s3.5,4.9,5.9,6.4c2.5,1.4,5.1,2.1,7.9,2.1
		c2.8,0,5.4-0.8,7.9-2.1c2.4-1.4,4.4-3.5,5.9-6.2C895.8,276.1,896.6,273,896.6,269.2z M954.1,251.7v29.4c0,2,0.5,3.4,1.4,4.3
		c1,0.9,2.5,1.3,4.8,1.3h6.8v9.2h-8.7c-4.9,0-8.7-1.1-11.3-3.5c-2.6-2.3-3.9-6-3.9-11.3v-29.4h-6.3v-8.9h6.3v-13.2h11.1v13.2h12.9
		v8.9h-13.1V251.7z M1001.9,235.8c-2,0-3.6-0.6-5-2c-1.4-1.4-2-3-2-5c0-2,0.6-3.6,2-5c1.4-1.4,3-2,5-2c1.9,0,3.5,0.6,4.9,2
		c1.4,1.4,2,3,2,5c0,2-0.6,3.6-2,5C1005.5,235,1003.8,235.8,1001.9,235.8z M1007.3,242.8v53h-10.9v-53H1007.3z M1064,296.7
		c-5,0-9.5-1.1-13.6-3.4c-4-2.3-7.2-5.5-9.5-9.7c-2.3-4.1-3.5-8.9-3.5-14.4c0-5.4,1.1-10.2,3.5-14.3c2.4-4.1,5.7-7.4,9.7-9.7
		c4.1-2.3,8.7-3.4,13.8-3.4c5.1,0,9.7,1.1,13.8,3.4s7.3,5.4,9.7,9.7c2.4,4.1,3.5,8.9,3.5,14.3c0,5.4-1.3,10.2-3.6,14.3
		c-2.4,4.1-5.8,7.4-10,9.7C1073.6,295.6,1069,296.7,1064,296.7z M1064,287.2c2.8,0,5.4-0.6,7.9-2c2.5-1.4,4.5-3.4,6-6
		s2.3-5.9,2.3-9.8s-0.8-7-2.3-9.7c-1.5-2.6-3.4-4.8-5.9-6c-2.4-1.4-5-2-7.9-2c-2.8,0-5.4,0.6-7.9,2c-2.4,1.4-4.3,3.4-5.7,6
		c-1.4,2.6-2.1,5.9-2.1,9.7c0,5.7,1.4,10.2,4.3,13.3C1055.8,285.7,1059.5,287.2,1064,287.2z M1148.2,242c4.1,0,7.9,0.9,11.2,2.6
		c3.4,1.8,5.9,4.3,7.8,7.7c1.9,3.4,2.8,7.5,2.8,12.3v31.3H1159v-29.6c0-4.8-1.1-8.4-3.5-10.9c-2.4-2.5-5.7-3.9-9.7-3.9
		c-4.1,0-7.4,1.3-9.8,3.9c-2.4,2.5-3.5,6.2-3.5,10.9v29.6h-10.9v-53h10.9v6c1.8-2.1,4-3.9,6.8-5.1
		C1142.1,242.6,1145.1,242,1148.2,242z M1199.6,269.1c0-5.3,1.1-10,3.3-14.2c2.3-4.1,5.3-7.3,9-9.5c3.9-2.3,8-3.5,12.7-3.5
		c4.1,0,7.8,0.9,10.9,2.5c3.1,1.6,5.7,3.6,7.5,6v-7.7h11.1v53.1h-11.1v-7.9c-1.9,2.5-4.4,4.6-7.7,6.3c-3.3,1.6-6.9,2.5-10.9,2.5
		c-4.5,0-8.7-1.1-12.6-3.5c-3.8-2.4-6.8-5.7-9-9.8C1200.6,279.1,1199.6,274.4,1199.6,269.1z M1242.9,269.2c0-3.6-0.8-6.8-2.3-9.5
		c-1.5-2.6-3.4-4.8-5.9-6.2c-2.4-1.4-5-2.1-7.9-2.1c-2.8,0-5.4,0.8-7.9,2.1c-2.4,1.4-4.4,3.4-5.9,6c-1.5,2.6-2.3,5.8-2.3,9.4
		c0,3.6,0.8,6.9,2.3,9.7c1.5,2.8,3.5,4.9,5.9,6.4c2.5,1.4,5.1,2.1,7.9,2.1c2.8,0,5.4-0.8,7.9-2.1c2.4-1.4,4.4-3.5,5.9-6.2
		C1242.2,276.1,1242.9,273,1242.9,269.2z M1298.7,224.6v71.2h-10.9v-71.2H1298.7z M1380.8,268c0,2-0.1,3.8-0.4,5.4h-40.6
		c0.4,4.3,1.9,7.7,4.8,10.2c2.8,2.5,6.3,3.9,10.4,3.9c5.9,0,10-2.5,12.6-7.4h11.8c-1.6,4.9-4.5,8.9-8.8,12.1
		c-4.1,3.1-9.4,4.6-15.6,4.6c-5,0-9.7-1.1-13.7-3.4c-4-2.3-7.2-5.5-9.4-9.7c-2.3-4.1-3.4-8.9-3.4-14.4c0-5.4,1.1-10.2,3.3-14.3
		c2.3-4.1,5.4-7.4,9.3-9.7c4-2.3,8.7-3.4,13.8-3.4c5,0,9.4,1.1,13.3,3.3c3.9,2.1,6.9,5.3,9.2,9.3
		C1379.8,258.4,1380.8,262.9,1380.8,268z M1369.4,264.6c-0.1-4-1.5-7.3-4.3-9.7c-2.8-2.4-6.3-3.6-10.4-3.6c-3.8,0-7,1.3-9.7,3.6
		c-2.6,2.4-4.3,5.7-4.8,9.7H1369.4z"/>
	<path class="st2" d="M96.8,150.7c0-16.6,3.6-31.3,11.1-44.2c7.5-13.2,17.7-23.4,30.5-30.5c12.9-7.4,27.5-11.1,43.6-11.1
		c18.7,0,35.2,4.8,49.4,14.4s24,23,29.6,39.9h-38.8c-3.9-8-9.3-14.1-16.3-18.1c-6.9-4-14.9-6-24.1-6c-9.8,0-18.5,2.4-26.2,7
		c-7.5,4.5-13.4,10.9-17.8,19.2c-4.1,8.3-6.3,18.1-6.3,29.4c0,11.1,2.1,20.8,6.3,29.4c4.3,8.3,10.3,14.8,17.8,19.5
		c7.7,4.5,16.5,6.8,26.2,6.8c9.2,0,17.2-2,24.1-6c7-4.1,12.6-10.3,16.3-18.3h38.7c-5.7,17.2-15.4,30.5-29.6,40.2
		c-13.9,9.4-30.4,14.2-49.4,14.2c-16.1,0-30.5-3.6-43.6-10.8c-12.8-7.4-23-17.6-30.5-30.5C100.5,181.9,96.8,167.2,96.8,150.7z"/>
	<path class="st2" d="M323.3,64.9v170h-33.7v-170H323.3z"/>
	<path class="st2" d="M500.1,234.9h-33.7l-76.2-115.2v116.7h-33.7V66.9h33.7l76.2,115.4V66.8h33.7V234.9z"/>
</g>
</svg>
