<?xml version="1.0" encoding="utf-8"?>
<!-- Generator: Adobe Illustrator 26.5.0, SVG Export Plug-In . SVG Version: 6.00 Build 0)  -->
<svg version="1.1" id="Layer_1" xmlns="http://www.w3.org/2000/svg" xmlns:xlink="http://www.w3.org/1999/xlink" x="0px" y="0px"
	 viewBox="0 0 313.3 304.2" style="enable-background:new 0 0 313.3 304.2;" xml:space="preserve">
<style type="text/css">
	.st0{fill:#303030;}
	.st1{fill:url(#SVGID_1_);}
	.st2{fill:url(#SVGID_00000175307628559604140650000000854538631105252513_);}
</style>
<g id="Layer_2_1_">
	<g id="Layer_1-2">
		<path class="st0" d="M312.2,121c-0.9,27.2-13.8,41.2-24.5,48.2c-1.6,1-3.1,1.9-4.8,2.8c-20.3,10.3-45.9,6.3-62.7-10.5L101.5,42.6
			c-16.3-16.3-42.8-16.3-59.1,0.1c-7.8,7.8-12.2,18.5-12.2,29.5v192.4l74.5-37.4l19.7-9.9h0.1l9.9-5l13.7,27.1l-0.9,0.5h-0.1
			l-19.7,9.9L22.6,302.5c-2.2,1.1-4.6,1.7-7,1.7c-2.9,0-5.7-0.8-8.2-2.3C2.8,299.1,0,294,0,288.6V72.2C0,32.3,32.3,0,72.2,0
			c19.1,0,37.5,7.6,51,21.1l43.1,43.1l22.4,22.7l53,53c8,8,20.4,9.6,29.4,3.8c6.8-4.4,11.4-12.2,11.8-23.7L312.2,121z"/>
		<path class="st0" d="M313.3,15.6v216.3c0,39.9-32.3,72.2-72.2,72.2c-19.1,0-37.5-7.6-51-21.1l-65.8-65.8l-53-53
			c-8-8-20.4-9.6-29.4-3.8c-6.8,4.4-11.4,12.2-11.8,23.7l-29.3-1c0.9-27.2,13.8-41.2,24.5-48.2c1.5-1,3.1-1.9,4.8-2.7
			c20.3-10.3,45.9-6.3,62.7,10.5l118.8,118.8c16.3,16.3,42.8,16.3,59.1-0.1c7.8-7.8,12.2-18.5,12.2-29.5V39.5l-94.2,47.4l-9.9,5
			l-13.6-27.1l0.9-0.5L290.6,1.7c4.9-2.4,10.7-2.2,15.3,0.7C310.5,5.2,313.3,10.2,313.3,15.6z"/>
		
			<linearGradient id="SVGID_1_" gradientUnits="userSpaceOnUse" x1="162.4958" y1="48.3078" x2="42.2178" y2="-33.9348" gradientTransform="matrix(1 0 0 -1 0 250.03)">
			<stop  offset="1.907349e-07" style="stop-color:#FFE700"/>
			<stop  offset="1" style="stop-color:#FFE700;stop-opacity:0"/>
		</linearGradient>
		<polygon class="st1" points="147,239.9 21.9,302.4 30.2,264.6 124.3,217.3 		"/>
		
			<linearGradient id="SVGID_00000094618386597329141910000001377113725886947489_" gradientUnits="userSpaceOnUse" x1="1004.2422" y1="543.4115" x2="885.0129" y2="461.8363" gradientTransform="matrix(-1 0 0 1 1154.98 -441.38)">
			<stop  offset="0" style="stop-color:#FFF015"/>
			<stop  offset="1" style="stop-color:#FFE700;stop-opacity:0"/>
		</linearGradient>
		<polygon style="fill:url(#SVGID_00000094618386597329141910000001377113725886947489_);" points="166,63.7 289.8,2.2 282.9,39.5 
			189.5,86.4 		"/>
	</g>
</g>
</svg>
