<svg width="82" height="83" viewBox="0 0 82 83" fill="none" xmlns="http://www.w3.org/2000/svg">
<path d="M78.0027 15.4021C82.6579 10.6739 81.5152 2.2675 81.4648 1.91387C81.3328 1.00615 80.6336 0.295807 79.7399 0.1619C79.3903 0.110733 71.1151 -1.04991 66.4599 3.6783C62.6971 7.50009 62.7242 13.6543 62.8997 16.0888L61.0563 17.961C61.1175 17.5009 61.2181 17.0546 61.2181 16.5794C61.2181 9.89196 54.5577 4.76996 54.2747 4.55429C53.5497 4.00716 52.5606 4.00716 51.8356 4.55429C51.5541 4.7698 44.8935 9.8918 44.8935 16.5794C44.8935 22.1146 49.4113 26.5305 51.1445 28.0255L46.7723 32.4663C46.8349 32.0076 46.9355 31.5613 46.9355 31.0859C46.9355 24.3985 40.2751 19.2765 39.9921 19.0608C39.2671 18.5137 38.278 18.5137 37.553 19.0608C37.27 19.2763 30.6096 24.3998 30.6096 31.0872C30.6096 36.6224 35.1274 41.0383 36.8606 42.5333L32.4869 46.9755C32.5496 46.5168 32.6502 46.0706 32.6502 45.5939C32.6502 38.9065 25.9898 33.7845 25.7068 33.5688C24.9817 33.0217 23.9927 33.0217 23.2677 33.5688C22.9861 33.7843 16.3255 38.9063 16.3255 45.5939C16.3255 51.1291 20.8448 55.545 22.5766 57.04L0.597945 79.3628C-0.199315 80.1724 -0.199315 81.4838 0.597945 82.2934C0.996496 82.6997 1.51892 82.9014 2.04134 82.9014C2.56376 82.9014 3.08618 82.6996 3.48473 82.2949L21.382 64.117C22.8554 65.8772 27.2018 70.466 32.6515 70.466C39.2357 70.466 44.2786 63.7012 44.491 63.4138C45.0296 62.6773 45.0296 61.6728 44.491 60.9364C44.28 60.649 39.2358 53.8842 32.6515 53.8842C32.1836 53.8842 31.744 53.9863 31.2938 54.05L35.6661 49.6092C37.138 51.3694 41.4859 55.9582 46.9355 55.9582C53.5197 55.9582 58.5627 49.1934 58.775 48.9059C59.3137 48.1695 59.3137 47.165 58.775 46.4286C58.5628 46.1412 53.5184 39.3776 46.9342 39.3776C46.4663 39.3776 46.0268 39.4798 45.5752 39.5434L49.9474 35.1026C51.4208 36.8616 55.7685 41.4502 61.2183 41.4502C67.8025 41.4502 72.8454 34.6854 73.0578 34.398C73.5965 33.6616 73.5965 32.657 73.0578 31.9206C72.8456 31.6347 67.8027 24.8697 61.2183 24.8697C60.7504 24.8697 60.3109 24.9718 59.8592 25.0355L65.7838 19.0181C68.1806 19.1962 74.2397 19.2224 78.0027 15.4021ZM69.345 6.60888C71.557 4.36225 75.3689 4.09686 77.5319 4.14949C77.5808 6.34916 77.3156 10.2373 75.1172 12.4702C72.9052 14.7168 69.0933 14.9822 66.9303 14.9296C66.8801 12.7298 67.1468 8.84029 69.345 6.60888ZM24.4918 53.2125C22.926 51.6926 20.4065 48.751 20.4065 45.5937C20.4065 42.4157 22.9179 39.4907 24.4836 37.9749C26.0494 39.4949 28.5689 42.4365 28.5689 45.5937C28.5689 48.7717 26.0577 51.6968 24.4918 53.2125ZM32.65 58.0293C35.779 58.0293 38.6589 60.58 40.1512 62.1702C38.6547 63.7606 35.7586 66.3196 32.65 66.3196C29.5211 66.3196 26.6412 63.7688 25.1488 62.1786C26.6453 60.5881 29.5416 58.0293 32.65 58.0293ZM38.7759 38.706C37.2101 37.1848 34.6906 34.2445 34.6906 31.0872C34.6906 27.9092 37.2019 24.9841 38.7676 23.4684C40.3334 24.9883 42.8529 27.9299 42.8529 31.0872C42.8529 34.2652 40.3417 37.1903 38.7759 38.706ZM46.9341 43.5226C50.063 43.5226 52.9429 46.0719 54.4353 47.6635C52.9388 49.2539 50.0426 51.8129 46.9341 51.8129C43.8051 51.8129 40.9252 49.2622 39.4329 47.672C40.9293 46.0816 43.8257 43.5226 46.9341 43.5226ZM53.0599 24.198C51.4941 22.6781 48.9747 19.7365 48.9747 16.5792C48.9747 13.4012 51.486 10.4762 53.0517 8.96044C54.6175 10.4804 57.137 13.422 57.137 16.5792C57.137 19.7572 54.6258 22.6823 53.0599 24.198ZM61.2181 29.0146C64.3471 29.0146 67.2256 31.5653 68.7193 33.1556C67.2228 34.7459 64.3267 37.3049 61.2181 37.3049C58.0892 37.3049 55.2093 34.7542 53.7169 33.164C55.2134 31.5736 58.1097 29.0146 61.2181 29.0146Z" fill="#171717"/>
</svg>
